<?xml version="1.0" encoding="UTF-8"?>
<svg xmlns="http://www.w3.org/2000/svg" xmlns:xlink="http://www.w3.org/1999/xlink" version="1.1" id="Capa_1" x="0px" y="0px" viewBox="0 0 512 512" style="enable-background:new 0 0 512 512;" xml:space="preserve" width="512" height="512">
<g>
	
		<rect x="75.25" y="376.5" style="fill:none;stroke:#000000;stroke-width:30;stroke-linejoin:round;stroke-miterlimit:10;" width="361.5" height="60.25"/>
	<path style="fill:none;stroke:#000000;stroke-width:30;stroke-linejoin:round;stroke-miterlimit:10;" d="M387.793,222.865&#10;&#9;&#9;c2.419,5.536,3.769,11.645,3.769,18.072c0,24.956-20.231,45.188-45.188,45.188s-45.188-20.231-45.188-45.188&#10;&#9;&#9;c0-15.272,7.584-28.765,19.184-36.945L256,75.25l-64.371,128.743c11.6,8.18,19.184,21.672,19.184,36.945&#10;&#9;&#9;c0,24.956-20.231,45.188-45.187,45.188s-45.188-20.231-45.188-45.188c0-6.427,1.351-12.536,3.769-18.072L15,135.5l60.25,241h361.5&#10;&#9;&#9;l60.25-241L387.793,222.865z"/>
</g>















</svg>
